  <svg width="64" height="16" viewBox="0 0 64 16" fill="none" xmlns="http://www.w3.org/2000/svg" xmlns:xlink="http://www.w3.org/1999/xlink">  
  <g id="car" transform="scale(.55, .55) translate(-17,30) rotate(270)">
  <filter id="a" color-interpolation-filters="sRGB" filterUnits="userSpaceOnUse" height="7.10879" width="6.9588" x="5.14722" y="23.0412">
    <feFlood flood-opacity="0" result="BackgroundImageFix"></feFlood>
    <feBlend in="SourceGraphic" in2="BackgroundImageFix" mode="normal" result="shape"></feBlend>
    <feColorMatrix in="SourceAlpha" result="hardAlpha" type="matrix" values="0 0 0 0 0 0 0 0 0 0 0 0 0 0 0 0 0 0 127 0"></feColorMatrix>
    <feOffset></feOffset>
    <feGaussianBlur stdDeviation=".5"></feGaussianBlur>
    <feComposite in2="hardAlpha" k2="-1" k3="1" operator="arithmetic"></feComposite>
    <feColorMatrix type="matrix" values="0 0 0 0 0.145098 0 0 0 0 0.0823529 0 0 0 0 0.215686 0 0 0 1 0"></feColorMatrix>
    <feBlend in2="shape" mode="normal" result="effect1_innerShadow_18_10979"></feBlend>
    <feColorMatrix in="SourceAlpha" result="hardAlpha" type="matrix" values="0 0 0 0 0 0 0 0 0 0 0 0 0 0 0 0 0 0 127 0"></feColorMatrix>
    <feOffset dy=".15"></feOffset>
    <feGaussianBlur stdDeviation=".125"></feGaussianBlur>
    <feComposite in2="hardAlpha" k2="-1" k3="1" operator="arithmetic"></feComposite>
    <feColorMatrix type="matrix" values="0 0 0 0 0.207843 0 0 0 0 0.0313726 0 0 0 0 0.235294 0 0 0 1 0"></feColorMatrix>
    <feBlend in2="effect1_innerShadow_18_10979" mode="normal" result="effect2_innerShadow_18_10979"></feBlend>
  </filter>
  <filter id="b" color-interpolation-filters="sRGB" filterUnits="userSpaceOnUse" height="2.67123" width="2.67123" x="7.291" y="25.185">
    <feFlood flood-opacity="0" result="BackgroundImageFix"></feFlood>
    <feBlend in="SourceGraphic" in2="BackgroundImageFix" mode="normal" result="shape"></feBlend>
    <feColorMatrix in="SourceAlpha" result="hardAlpha" type="matrix" values="0 0 0 0 0 0 0 0 0 0 0 0 0 0 0 0 0 0 127 0"></feColorMatrix>
    <feOffset dx=".05" dy="-.05"></feOffset>
    <feGaussianBlur stdDeviation=".05"></feGaussianBlur>
    <feComposite in2="hardAlpha" k2="-1" k3="1" operator="arithmetic"></feComposite>
    <feColorMatrix type="matrix" values="0 0 0 0 0.478431 0 0 0 0 0.364706 0 0 0 0 0.584314 0 0 0 1 0"></feColorMatrix>
    <feBlend in2="shape" mode="normal" result="effect1_innerShadow_18_10979"></feBlend>
    <feColorMatrix in="SourceAlpha" result="hardAlpha" type="matrix" values="0 0 0 0 0 0 0 0 0 0 0 0 0 0 0 0 0 0 127 0"></feColorMatrix>
    <feOffset dx="-.05" dy=".05"></feOffset>
    <feGaussianBlur stdDeviation=".05"></feGaussianBlur>
    <feComposite in2="hardAlpha" k2="-1" k3="1" operator="arithmetic"></feComposite>
    <feColorMatrix type="matrix" values="0 0 0 0 0.807843 0 0 0 0 0.764706 0 0 0 0 0.858824 0 0 0 1 0"></feColorMatrix>
    <feBlend in2="effect1_innerShadow_18_10979" mode="normal" result="effect2_innerShadow_18_10979"></feBlend>
  </filter>
  <filter id="c" color-interpolation-filters="sRGB" filterUnits="userSpaceOnUse" height="7.10879" width="6.9588" x="23.0412" y="23.0412">
    <feFlood flood-opacity="0" result="BackgroundImageFix"></feFlood>
    <feBlend in="SourceGraphic" in2="BackgroundImageFix" mode="normal" result="shape"></feBlend>
    <feColorMatrix in="SourceAlpha" result="hardAlpha" type="matrix" values="0 0 0 0 0 0 0 0 0 0 0 0 0 0 0 0 0 0 127 0"></feColorMatrix>
    <feOffset></feOffset>
    <feGaussianBlur stdDeviation=".5"></feGaussianBlur>
    <feComposite in2="hardAlpha" k2="-1" k3="1" operator="arithmetic"></feComposite>
    <feColorMatrix type="matrix" values="0 0 0 0 0.145098 0 0 0 0 0.0823529 0 0 0 0 0.215686 0 0 0 1 0"></feColorMatrix>
    <feBlend in2="shape" mode="normal" result="effect1_innerShadow_18_10979"></feBlend>
    <feColorMatrix in="SourceAlpha" result="hardAlpha" type="matrix" values="0 0 0 0 0 0 0 0 0 0 0 0 0 0 0 0 0 0 127 0"></feColorMatrix>
    <feOffset dy=".15"></feOffset>
    <feGaussianBlur stdDeviation=".125"></feGaussianBlur>
    <feComposite in2="hardAlpha" k2="-1" k3="1" operator="arithmetic"></feComposite>
    <feColorMatrix type="matrix" values="0 0 0 0 0.207843 0 0 0 0 0.0313726 0 0 0 0 0.235294 0 0 0 1 0"></feColorMatrix>
    <feBlend in2="effect1_innerShadow_18_10979" mode="normal" result="effect2_innerShadow_18_10979"></feBlend>
  </filter>
  <filter id="d" color-interpolation-filters="sRGB" filterUnits="userSpaceOnUse" height="2.67123" width="2.67123" x="25.185" y="25.185">
    <feFlood flood-opacity="0" result="BackgroundImageFix"></feFlood>
    <feBlend in="SourceGraphic" in2="BackgroundImageFix" mode="normal" result="shape"></feBlend>
    <feColorMatrix in="SourceAlpha" result="hardAlpha" type="matrix" values="0 0 0 0 0 0 0 0 0 0 0 0 0 0 0 0 0 0 127 0"></feColorMatrix>
    <feOffset dx=".05" dy="-.05"></feOffset>
    <feGaussianBlur stdDeviation=".05"></feGaussianBlur>
    <feComposite in2="hardAlpha" k2="-1" k3="1" operator="arithmetic"></feComposite>
    <feColorMatrix type="matrix" values="0 0 0 0 0.478431 0 0 0 0 0.364706 0 0 0 0 0.584314 0 0 0 1 0"></feColorMatrix>
    <feBlend in2="shape" mode="normal" result="effect1_innerShadow_18_10979"></feBlend>
    <feColorMatrix in="SourceAlpha" result="hardAlpha" type="matrix" values="0 0 0 0 0 0 0 0 0 0 0 0 0 0 0 0 0 0 127 0"></feColorMatrix>
    <feOffset dx="-.05" dy=".05"></feOffset>
    <feGaussianBlur stdDeviation=".05"></feGaussianBlur>
    <feComposite in2="hardAlpha" k2="-1" k3="1" operator="arithmetic"></feComposite>
    <feColorMatrix type="matrix" values="0 0 0 0 0.807843 0 0 0 0 0.764706 0 0 0 0 0.858824 0 0 0 1 0"></feColorMatrix>
    <feBlend in2="effect1_innerShadow_18_10979" mode="normal" result="effect2_innerShadow_18_10979"></feBlend>
  </filter>
  <filter id="e" color-interpolation-filters="sRGB" filterUnits="userSpaceOnUse" height="7.16891" width="7.16895" x="5.33875" y="22.7853">
    <feFlood flood-opacity="0" result="BackgroundImageFix"></feFlood>
    <feBlend in="SourceGraphic" in2="BackgroundImageFix" mode="normal" result="shape"></feBlend>
    <feGaussianBlur result="effect1_foregroundBlur_18_10979" stdDeviation=".375"></feGaussianBlur>
  </filter>
  <filter id="f" color-interpolation-filters="sRGB" filterUnits="userSpaceOnUse" height="7.16891" width="7.16895" x="23.2137" y="22.7853">
    <feFlood flood-opacity="0" result="BackgroundImageFix"></feFlood>
    <feBlend in="SourceGraphic" in2="BackgroundImageFix" mode="normal" result="shape"></feBlend>
    <feGaussianBlur result="effect1_foregroundBlur_18_10979" stdDeviation=".375"></feGaussianBlur>
  </filter>
  <radialGradient id="g" cx="0" cy="0" gradientTransform="matrix(0 2.67188 -2.24513 0 19.9645 21.7667)" gradientUnits="userSpaceOnUse" r="1">
    <stop offset="0" stop-color="#727273"></stop>
    <stop offset="1" stop-color="#4e2a2a"></stop>
  </radialGradient>
  <radialGradient id="h" cx="0" cy="0" gradientTransform="matrix(-1.0625 0 0 -2.18104 23.3707 27.0177)" gradientUnits="userSpaceOnUse" r="1">
    <stop offset=".155173" stop-color="#aa2e30"></stop>
    <stop offset="1" stop-color="#aa2e30" stop-opacity="0"></stop>
  </radialGradient>
  <linearGradient id="i" gradientUnits="userSpaceOnUse" x1="4.05362" x2="17.0765" y1="27.0177" y2="27.0177">
    <stop offset="0" stop-color="#c03131"></stop>
    <stop offset="1" stop-color="#fc443f"></stop>
  </linearGradient>
  <linearGradient id="j" gradientUnits="userSpaceOnUse" x1="16.5811" x2="16.5811" y1="23.5351" y2="27.0177">
    <stop offset="0" stop-color="#ff5752"></stop>
    <stop offset="1" stop-color="#ff5752" stop-opacity="0"></stop>
  </linearGradient>
  <linearGradient id="k" gradientUnits="userSpaceOnUse" x1="8.32363" x2="18.7202" y1="25.531" y2="25.531">
    <stop offset="0" stop-color="#c5c5c7"></stop>
    <stop offset="1" stop-color="#f0ebed"></stop>
  </linearGradient>
  <linearGradient id="l" gradientUnits="userSpaceOnUse" x1="23.652" x2="22.027" y1="25.7667" y2="25.7667">
    <stop offset="0" stop-color="#b9b3ba"></stop>
    <stop offset="1" stop-color="#b9b3ba" stop-opacity="0"></stop>
  </linearGradient>
  <radialGradient id="m" cx="0" cy="0" gradientTransform="matrix(.14951769 -4.78673541 11.96636377 .3737794 28.0118 23.2673)" gradientUnits="userSpaceOnUse" r="1">
    <stop offset="0" stop-color="#ed4c48"></stop>
    <stop offset="1" stop-color="#b5312d"></stop>
  </radialGradient>
  <linearGradient id="n" gradientUnits="userSpaceOnUse" x1="26.0211" x2="29.9975" y1="21.5545" y2="21.5545">
    <stop offset="0" stop-color="#e4aa2d"></stop>
    <stop offset="1" stop-color="#ff8213"></stop>
    <stop offset="1" stop-color="#f38320"></stop>
  </linearGradient>
  <linearGradient id="o" gradientUnits="userSpaceOnUse" x1="25.705" x2="26.7749" y1="21.7336" y2="21.7336">
    <stop offset="0" stop-color="#b58b2c"></stop>
    <stop offset="1" stop-color="#b58b2c" stop-opacity="0"></stop>
  </linearGradient>
  <linearGradient id="p" gradientUnits="userSpaceOnUse" x1="26.0236" x2="30" y1="19.5618" y2="19.5618">
    <stop offset="0" stop-color="#b9aab5"></stop>
    <stop offset=".692708" stop-color="#d8d4e0"></stop>
    <stop offset="1" stop-color="#c7c5cc"></stop>
  </linearGradient>
  <linearGradient id="q">
    <stop offset="0" stop-color="#94858a"></stop>
    <stop offset="1" stop-color="#94858a" stop-opacity="0"></stop>
  </linearGradient>
  <linearGradient id="r" gradientUnits="userSpaceOnUse" x1="25.9176" x2="26.8473" xlink:href="#q" y1="20.0589" y2="20.0589"></linearGradient>
  <linearGradient id="s" gradientUnits="userSpaceOnUse" x1="30.1364" x2="29.8551" xlink:href="#q" y1="20.0589" y2="20.0589"></linearGradient>
  <radialGradient id="t" cx="0" cy="0" gradientTransform="matrix(-2.03125 0 0 -2.78041 24.3707 28.0118)" gradientUnits="userSpaceOnUse" r="1">
    <stop offset=".428571" stop-color="#620b25"></stop>
    <stop offset="1" stop-color="#620b25" stop-opacity="0"></stop>
  </radialGradient>
  <linearGradient id="u" gradientUnits="userSpaceOnUse" x1="23.9268" x2="23.9268" y1="27.0177" y2="27.1105">
    <stop offset="0" stop-color="#b11b27"></stop>
    <stop offset="1" stop-color="#b11b27" stop-opacity="0"></stop>
  </linearGradient>
  <linearGradient id="v" gradientUnits="userSpaceOnUse" x1="3.40132" x2="20.4282" y1="29.0059" y2="29.0059">
    <stop offset="0" stop-color="#ab3138"></stop>
    <stop offset="1" stop-color="#c8494e"></stop>
  </linearGradient>
  <linearGradient id="w">
    <stop offset="0" stop-color="#722026"></stop>
    <stop offset="1" stop-color="#722026" stop-opacity="0"></stop>
  </linearGradient>
  <linearGradient id="x" gradientUnits="userSpaceOnUse" x1="16.8082" x2="15.1339" xlink:href="#w" y1="29.423" y2="28.8479"></linearGradient>
  <linearGradient id="y" gradientUnits="userSpaceOnUse" x1="15.1832" x2="15.1832" xlink:href="#w" y1="29.4855" y2="28.2042"></linearGradient>
  <radialGradient id="z" cx="0" cy="0" gradientTransform="matrix(-3.09375157 .50495807 -.35786945 -2.19257647 7.21448 28.0118)" gradientUnits="userSpaceOnUse" r="1" xlink:href="#w"></radialGradient>
  <linearGradient id="A" gradientUnits="userSpaceOnUse" x1="12.5582" x2="12.5582" y1="27.0177" y2="27.1105">
    <stop offset="0" stop-color="#bf212e"></stop>
    <stop offset="1" stop-color="#bf212e" stop-opacity="0"></stop>
  </linearGradient>
  <radialGradient id="B" cx="0" cy="0" gradientTransform="matrix(1.31249929 -3.26858702 6.98246527 2.80380503 20.652 24.0353)" gradientUnits="userSpaceOnUse" r="1">
    <stop offset="0" stop-color="#ff5a56"></stop>
    <stop offset="1" stop-color="#ff4940"></stop>
  </radialGradient>
  <radialGradient id="C" cx="0" cy="0" gradientTransform="matrix(3.6139 0 0 2.4375 18.4332 26.2667)" gradientUnits="userSpaceOnUse" r="1">
    <stop offset="0" stop-color="#ffe042"></stop>
    <stop offset="1" stop-color="#dc8b38"></stop>
  </radialGradient>
  <radialGradient id="D" cx="0" cy="0" gradientTransform="matrix(3.73755 0 0 3.11637 18.0707 27.5147)" gradientUnits="userSpaceOnUse" r="1">
    <stop offset=".749167" stop-color="#e57a14" stop-opacity="0"></stop>
    <stop offset="1" stop-color="#e57a14"></stop>
  </radialGradient>
  <linearGradient id="E" gradientUnits="userSpaceOnUse" x1="19.0582" x2="19.0582" y1="29.9542" y2="28.173">
    <stop offset="0" stop-color="#97594d"></stop>
    <stop offset=".929825" stop-color="#97594d" stop-opacity="0"></stop>
  </linearGradient>
  <linearGradient id="F" gradientUnits="userSpaceOnUse" x1="17.5736" x2="17.5736" y1="26.0235" y2="27.5147">
    <stop offset="0" stop-color="#626162"></stop>
    <stop offset="1" stop-color="#646367"></stop>
  </linearGradient>
  <linearGradient id="G" gradientUnits="userSpaceOnUse" x1="18.0707" x2="18.0707" y1="29.0059" y2="26.8449">
    <stop offset="0" stop-color="#2b1b41"></stop>
    <stop offset="1" stop-color="#2b1b41" stop-opacity="0"></stop>
  </linearGradient>
  <linearGradient id="H">
    <stop offset=".239044" stop-color="#34214f"></stop>
    <stop offset="1" stop-color="#241337"></stop>
  </linearGradient>
  <linearGradient id="I" gradientUnits="userSpaceOnUse" x1="7.02221" x2="12.2483" xlink:href="#H" y1="25.6457" y2="25.6457"></linearGradient>
  <linearGradient id="J">
    <stop offset=".523134" stop-color="#2d114d"></stop>
    <stop offset="1" stop-color="#2b1249" stop-opacity="0"></stop>
  </linearGradient>
  <radialGradient id="K" cx="0" cy="0" gradientTransform="matrix(.78617071 -1.72801853 1.8048598 .82113003 8.62661 26.2093)" gradientUnits="userSpaceOnUse" r="1" xlink:href="#J"></radialGradient>
  <linearGradient id="L">
    <stop offset="0" stop-color="#392a49"></stop>
    <stop offset="1" stop-color="#392a49" stop-opacity="0"></stop>
  </linearGradient>
  <radialGradient id="M" cx="0" cy="0" gradientTransform="matrix(.64250134 .42503985 -.47760817 .72196498 9.57554 26.7613)" gradientUnits="userSpaceOnUse" r="1" xlink:href="#L"></radialGradient>
  <radialGradient id="N" cx="0" cy="0" gradientTransform="matrix(1.87499977 1.00000043 -.64922381 1.21729397 22.0739 22.5949)" gradientUnits="userSpaceOnUse" r="1">
    <stop offset="0" stop-color="#f8f2f5"></stop>
    <stop offset="1" stop-color="#f2dee2"></stop>
  </radialGradient>
  <radialGradient id="O" cx="0" cy="0" gradientTransform="matrix(1.5156254 -1.96874776 3.47779854 2.67735659 23.1989 24.5167)" gradientUnits="userSpaceOnUse" r="1">
    <stop offset=".688234" stop-color="#c8bbba" stop-opacity="0"></stop>
    <stop offset="1" stop-color="#c8bbba"></stop>
  </radialGradient>
  <linearGradient id="P" gradientUnits="userSpaceOnUse" x1="24.9162" x2="30.1423" xlink:href="#H" y1="25.6457" y2="25.6457"></linearGradient>
  <radialGradient id="Q" cx="0" cy="0" gradientTransform="matrix(.78617071 -1.72801853 1.8048598 .82113003 26.5206 26.2093)" gradientUnits="userSpaceOnUse" r="1" xlink:href="#J"></radialGradient>
  <radialGradient id="R" cx="0" cy="0" gradientTransform="matrix(.64250134 .42503985 -.47760817 .72196498 27.4695 26.7613)" gradientUnits="userSpaceOnUse" r="1" xlink:href="#L"></radialGradient>
  <linearGradient id="S">
    <stop offset=".0830122" stop-color="#615b6b"></stop>
    <stop offset=".390771" stop-color="#615b6b" stop-opacity="0"></stop>
    <stop offset=".692394" stop-color="#615b6b" stop-opacity="0"></stop>
    <stop offset=".934982" stop-color="#615b6b"></stop>
  </linearGradient>
  <linearGradient id="T" gradientUnits="userSpaceOnUse" x1="10.6662" x2="7.14532" xlink:href="#S" y1="24.0353" y2="28.1914"></linearGradient>
  <linearGradient id="U" gradientUnits="userSpaceOnUse" x1="28.5412" x2="25.0203" xlink:href="#S" y1="24.0353" y2="28.1914"></linearGradient>
  <path d="m20.0589 24.0353h-.9941v-1.9882c0-.5468.4473-.9941.9941-.9941z" fill="url(#g)"></path>
  <path d="m28.0118 24.0353h-8.947v2.9824h8.947z" fill="#ee3124"></path>
  <path d="m28.0118 24.0353h-14.9117v2.9824h14.9117z" fill="#ee3124"></path>
  <path d="m28.0118 24.0353h-14.9117v2.9824h14.9117z" fill="url(#h)"></path>
  <path d="m14.0942 23.0412c-2.6145 0-5.18926.6064-7.53537 1.7795l-4.39397 2.197h14.91164v-2.9824l-.9941-.9941z" fill="url(#i)"></path>
  <path clip-rule="evenodd" d="m16.0856 27.0177v-3.9733l.9909.9909v2.9824z" fill="url(#j)" fill-rule="evenodd"></path>
  <path d="m28.0118 25.0294h-21.8705l-1.98822.9941h23.85872z" fill="url(#k)"></path>
  <path d="m28.0118 25.0294h-21.8705l-1.98822.9941h23.85872z" fill="url(#l)"></path>
  <path d="m26.0236 26.4982h3.9764v-6.4618h-3.9764z" fill="url(#m)"></path>
  <path d="m26.0236 22.0471h3.9764v-.9941h-3.9764z" fill="url(#n)"></path>
  <path d="m26.0236 22.0471h3.9764v-.9941h-3.9764z" fill="url(#o)"></path>
  <path d="m26.0236 20.0589h3.9764v-.9941h-3.9764z" fill="url(#p)"></path>
  <path d="m26.0236 20.0589h3.9764v-.9941h-3.9764z" fill="url(#r)"></path>
  <path d="m26.0236 20.0589h3.9764v-.9941h-3.9764z" fill="url(#s)"></path>
  <path d="m28.0118 27.0177h-9.9411v1.9882h9.9411z" fill="#a0393e"></path>
  <path d="m28.0118 27.0177h-9.9411v1.9882h9.9411z" fill="url(#t)"></path>
  <path d="m28.0118 27.0177h-9.9411v1.9882h9.9411z" fill="url(#u)"></path>
  <path d="m19.8082 27.0177h-17.64334v1.9882h17.64334z" fill="url(#v)"></path>
  <path d="m19.8082 27.0177h-17.64334v1.9882h17.64334z" fill="url(#x)"></path>
  <path d="m19.8082 27.0177h-17.64334v1.9882h17.64334z" fill="url(#y)"></path>
  <path d="m19.8082 27.0177h-17.64334v1.9882h17.64334z" fill="url(#z)"></path>
  <path d="m19.8082 27.0177h-17.64334v1.9882h17.64334z" fill="url(#A)"></path>
  <path d="m26.0236 24.0353h-5.9647v-2.9823c1.9087 0 3.7379.7555 5.0898 2.1075z" fill="url(#B)"></path>
  <path d="m20.556 29.0059h-2.4853v-2.9824h2.4853c.8251 0 1.4911.6661 1.4911 1.4912s-.666 1.4912-1.4911 1.4912z" fill="url(#C)"></path>
  <path d="m20.556 29.0059h-2.4853v-2.9824h2.4853c.8251 0 1.4911.6661 1.4911 1.4912s-.666 1.4912-1.4911 1.4912z" fill="url(#D)"></path>
  <path d="m20.556 29.0059h-2.4853v-2.9824h2.4853c.8251 0 1.4911.6661 1.4911 1.4912s-.666 1.4912-1.4911 1.4912z" fill="url(#E)"></path>
  <path d="m18.0707 26.0235h-.9942v2.9824h.9942z" fill="url(#F)"></path>
  <path d="m18.0707 26.0235h-.9942v2.9824h.9942z" fill="url(#G)"></path>
  <g filter="url(#a)">
    <path d="m8.62661 30c1.92159 0 3.47939-1.5578 3.47939-3.4794s-1.5578-3.4794-3.47939-3.4794c-1.92162 0-3.47939 1.5578-3.47939 3.4794s1.55777 3.4794 3.47939 3.4794z" fill="url(#I)"></path>
    <path d="m8.62661 30c1.92159 0 3.47939-1.5578 3.47939-3.4794s-1.5578-3.4794-3.47939-3.4794c-1.92162 0-3.47939 1.5578-3.47939 3.4794s1.55777 3.4794 3.47939 3.4794z" fill="url(#K)"></path>
    <path d="m8.62661 30c1.92159 0 3.47939-1.5578 3.47939-3.4794s-1.5578-3.4794-3.47939-3.4794c-1.92162 0-3.47939 1.5578-3.47939 3.4794s1.55777 3.4794 3.47939 3.4794z" fill="url(#M)"></path>
  </g>
  <g filter="url(#b)">
    <path d="m8.62662 27.8062c.71002 0 1.28561-.5756 1.28561-1.2856s-.57559-1.2856-1.28561-1.2856c-.71003 0-1.28562.5756-1.28562 1.2856s.57559 1.2856 1.28562 1.2856z" fill="#d9d2e8"></path>
  </g>
  <path clip-rule="evenodd" d="m23.2799 21.813-2.2263 2.2223h4.9699l-.8748-.8748c-.5523-.5523-1.1843-1.0051-1.8688-1.3475z" fill="url(#N)" fill-rule="evenodd"></path>
  <path clip-rule="evenodd" d="m23.2799 21.813-2.2263 2.2223h4.9699l-.8748-.8748c-.5523-.5523-1.1843-1.0051-1.8688-1.3475z" fill="url(#O)" fill-rule="evenodd"></path>
  <g filter="url(#c)">
    <path d="m26.5206 30c1.9216 0 3.4794-1.5578 3.4794-3.4794s-1.5578-3.4794-3.4794-3.4794-3.4794 1.5578-3.4794 3.4794 1.5578 3.4794 3.4794 3.4794z" fill="url(#P)"></path>
    <path d="m26.5206 30c1.9216 0 3.4794-1.5578 3.4794-3.4794s-1.5578-3.4794-3.4794-3.4794-3.4794 1.5578-3.4794 3.4794 1.5578 3.4794 3.4794 3.4794z" fill="url(#Q)"></path>
    <path d="m26.5206 30c1.9216 0 3.4794-1.5578 3.4794-3.4794s-1.5578-3.4794-3.4794-3.4794-3.4794 1.5578-3.4794 3.4794 1.5578 3.4794 3.4794 3.4794z" fill="url(#R)"></path>
  </g>
  <g filter="url(#d)">
    <path d="m26.5206 27.8062c.71 0 1.2856-.5756 1.2856-1.2856s-.5756-1.2856-1.2856-1.2856-1.2856.5756-1.2856 1.2856.5756 1.2856 1.2856 1.2856z" fill="#d2cbe1"></path>
  </g>
  <g filter="url(#e)">
    <circle cx="8.9232" cy="26.3698" r="2.33446" stroke="url(#T)"></circle>
  </g>
  <g filter="url(#f)">
    <circle cx="26.7982" cy="26.3698" r="2.33446" stroke="url(#U)"></circle>
  </g>
    </g>
    <!-- <use href="#car"  transform=" translate(8,0)"/> -->
    <use href="#car"  transform=" translate(16,0)"/>
    <!-- <use href="#car"  transform=" translate(24,0)"/> -->
    <use href="#car"  transform=" translate(32,0)"/>
    <!-- <use href="#car"  transform=" translate(40,0)"/> -->
    <use href="#car"  transform=" translate(48,0)"/>
    <!-- <use href="#car"  transform=" translate(56,0)"/> -->
</svg>